# xmcd
# 
# Track frame offsets:
#     200
#     19850
#     38897
#     56670
#     74105
#     90305
#     105832
#     129980
#     148055
#     166617
#     182665
# 
# Disc length: 2636
# 
# Revision: 3
# Processed by: cddbd v1.5.2PL0 Copyright (c) Steve Scherf et al.
# Submitted via: fre:ac v1.0.17
# 
DISCID=8c0a4a0b
DTITLE=Joanna Connor - Fight
DYEAR=1992
DGENRE=Blues
TTITLE0=Walkin' Blues
TTITLE1=Living on the Road
TTITLE2=Fight
TTITLE3=Walk Away
TTITLE4=Heaven
TTITLE5=Lost
TTITLE6=Texas
TTITLE7=Your Love was Never Mine
TTITLE8=I got Love
TTITLE9=Child of Two Worlds
TTITLE10=No Good for Me
EXTD=YEAR: 1992
EXTT0=
EXTT1=
EXTT2=
EXTT3=
EXTT4=
EXTT5=
EXTT6=
EXTT7=
EXTT8=
EXTT9=
EXTT10=
PLAYORDER=
